<?xml version="1.0" encoding="UTF-8"?>
<svg width="240px" height="37px" viewBox="0 0 240 37" version="1.1" xmlns="http://www.w3.org/2000/svg" xmlns:xlink="http://www.w3.org/1999/xlink">
    <title>SOLAR CALENDAR</title>
    <defs>
        <linearGradient x1="673.411636%" y1="-1.8249291e-13%" x2="673.411636%" y2="100%" id="linearGradient-1">
            <stop stop-color="#555555" offset="0%"></stop>
            <stop stop-color="#FFFFFF" offset="100%"></stop>
        </linearGradient>
        <linearGradient x1="673.411636%" y1="-1.8249291e-13%" x2="673.411636%" y2="100%" id="linearGradient-2">
            <stop stop-color="#555555" offset="0%"></stop>
            <stop stop-color="#FFFFFF" offset="100%"></stop>
        </linearGradient>
        <linearGradient x1="673.411636%" y1="-1.8249291e-13%" x2="673.411636%" y2="100%" id="linearGradient-3">
            <stop stop-color="#555555" offset="0%"></stop>
            <stop stop-color="#FFFFFF" offset="100%"></stop>
        </linearGradient>
        <linearGradient x1="673.411636%" y1="-1.8249291e-13%" x2="673.411636%" y2="100%" id="linearGradient-4">
            <stop stop-color="#555555" offset="0%"></stop>
            <stop stop-color="#FFFFFF" offset="100%"></stop>
        </linearGradient>
        <linearGradient x1="673.411636%" y1="-1.8249291e-13%" x2="673.411636%" y2="100%" id="linearGradient-5">
            <stop stop-color="#555555" offset="0%"></stop>
            <stop stop-color="#FFFFFF" offset="100%"></stop>
        </linearGradient>
    </defs>
    <g id="Page-1" stroke="none" stroke-width="1" fill="none" fill-rule="evenodd">
        <g id="Large-17" transform="translate(-297.000000, -323.000000)" fill-rule="nonzero">
            <g id="SOLAR-CALENDAR" transform="translate(297.300000, 323.500000)">
                <path d="M9.6,12.5 L9.6,8.6 C9.6,8.06666667 9.5,7.8 9.3,7.8 C9.1,7.8 9,8.06666667 9,8.6 L9,11.4 C9,11.7666667 9.025,12.075 9.075,12.325 C9.125,12.575 9.275,12.825 9.525,13.075 C9.775,13.325 10.1666667,13.6166667 10.7,13.95 C11.2333333,14.2833333 11.9833333,14.7166667 12.95,15.25 L14.3,16 C15.1666667,16.4666667 15.875,16.9833333 16.425,17.55 C16.975,18.1166667 17.4083333,18.7833333 17.725,19.55 C18.0416667,20.3166667 18.2666667,21.225 18.4,22.275 C18.5333333,23.325 18.6,24.5833333 18.6,26.05 L18.6,26.7 C18.6,29.7 17.7833333,32 16.15,33.6 C14.5166667,35.2 12.1833333,36 9.15,36 C6.15,36 3.875,35.2083333 2.325,33.625 C0.775,32.0416667 0,29.7333333 0,26.7 L0,23.5 L9,23.5 L9,27.4 C9,27.9333333 9.1,28.2 9.3,28.2 C9.5,28.2 9.6,27.95 9.6,27.45 L9.6,24.5 C9.6,24.1333333 9.575,23.8333333 9.525,23.6 C9.475,23.3666667 9.34166667,23.1333333 9.125,22.9 C8.90833333,22.6666667 8.55833333,22.4 8.075,22.1 C7.59166667,21.8 6.91666667,21.4 6.05,20.9 L4.45,20 C3.58333333,19.5 2.85833333,18.9583333 2.275,18.375 C1.69166667,17.7916667 1.23333333,17.1 0.9,16.3 C0.566666667,15.5 0.333333333,14.5666667 0.2,13.5 C0.0666666667,12.4333333 0,11.1666667 0,9.7 L0,9.25 C0,6.21666667 0.783333333,3.91666667 2.35,2.35 C3.91666667,0.783333333 6.18333333,0 9.15,0 C12.1833333,0 14.5166667,0.8 16.15,2.4 C17.7833333,4 18.6,6.28333333 18.6,9.25 L18.6,12.5 L9.6,12.5 Z" id="Path" fill="url(#linearGradient-1)"></path>
                <path d="M19.2,9.25 C19.2,6.21666667 19.9833333,3.91666667 21.55,2.35 C23.1166667,0.783333333 25.3833333,0 28.35,0 C31.3833333,0 33.7166667,0.8 35.35,2.4 C36.9833333,4 37.8,6.28333333 37.8,9.25 L37.8,26.7 C37.8,29.7 36.9833333,32 35.35,33.6 C33.7166667,35.2 31.3833333,36 28.35,36 C25.3833333,36 23.1166667,35.2083333 21.55,33.625 C19.9833333,32.0416667 19.2,29.7333333 19.2,26.7 L19.2,9.25 Z M28.2,27.4 C28.2,27.9333333 28.3,28.2 28.5,28.2 C28.7,28.2 28.8,27.9333333 28.8,27.4 L28.8,8.6 C28.8,8.06666667 28.7,7.8 28.5,7.8 C28.3,7.8 28.2,8.06666667 28.2,8.6 L28.2,27.4 Z" id="Shape" fill="url(#linearGradient-1)"></path>
                <polygon id="Path" fill="url(#linearGradient-2)" points="47.4 0.5 47.4 27.7 51.4 27.7 51.4 35.5 38.4 35.5 38.4 0.5"></polygon>
                <path d="M68.1,0.5 L70.3,35.5 L61.3,35.5 L61.3,28.3 L60.7,28.3 L60.7,35.5 L51.7,35.5 L54.1,0.5 L68.1,0.5 Z M61.3,20.5 L61.3,16.2 L60.7,16.2 L60.7,20.5 L61.3,20.5 Z" id="Shape" fill="url(#linearGradient-3)"></path>
                <path d="M79.95,0.5 C82.95,0.5 85.2666667,1.25833333 86.9,2.775 C88.5333333,4.29166667 89.35,6.65 89.35,9.85 L89.35,10.1 C89.35,11.5666667 89.1833333,12.8416667 88.85,13.925 C88.5166667,15.0083333 88.1,15.9166667 87.6,16.65 C87.1,17.3833333 86.55,17.925 85.95,18.275 C85.35,18.625 84.7833333,18.8 84.25,18.8 L84.25,19.4 C84.7833333,19.4 85.35,19.6 85.95,20 C86.55,20.4 87.1,20.9666667 87.6,21.7 C88.1,22.4333333 88.5166667,23.3333333 88.85,24.4 C89.1833333,25.4666667 89.35,26.6666667 89.35,28 L89.35,28.4 C89.35,29.7333333 89.375,30.9833333 89.425,32.15 C89.475,33.3166667 89.6166667,34.4333333 89.85,35.5 L80.85,35.5 C80.6166667,34.4 80.475,33.2666667 80.425,32.1 C80.375,30.9333333 80.35,29.6666667 80.35,28.3 L80.35,23.8 C80.35,23.4333333 80.3333333,23.2083333 80.3,23.125 C80.2666667,23.0416667 80.1166667,23 79.85,23 L79.75,23 L79.75,35.5 L70.75,35.5 L70.75,0.5 L79.95,0.5 Z M79.75,15.2 L79.85,15.2 C80.1166667,15.2 80.2666667,15.1583333 80.3,15.075 C80.3333333,14.9916667 80.35,14.7666667 80.35,14.4 L80.35,9.05 C80.35,8.71666667 80.3333333,8.50833333 80.3,8.425 C80.2666667,8.34166667 80.1166667,8.3 79.85,8.3 L79.75,8.3 L79.75,15.2 Z" id="Shape" fill="url(#linearGradient-4)"></path>
                <path d="M106.95,27.4 C106.95,27.9333333 107.05,28.2 107.25,28.2 C107.45,28.2 107.55,27.9333333 107.55,27.4 L107.55,18.5 L116.55,18.5 L116.55,26.7 C116.55,29.7 115.733333,32 114.1,33.6 C112.466667,35.2 110.133333,36 107.1,36 C104.133333,36 101.866667,35.2083333 100.3,33.625 C98.7333333,32.0416667 97.95,29.7333333 97.95,26.7 L97.95,9.25 C97.95,6.21666667 98.7333333,3.91666667 100.3,2.35 C101.866667,0.783333333 104.133333,0 107.1,0 C110.133333,0 112.466667,0.8 114.1,2.4 C115.733333,4 116.55,6.28333333 116.55,9.25 L116.55,17.5 L107.55,17.5 L107.55,8.6 C107.55,8.06666667 107.45,7.8 107.25,7.8 C107.05,7.8 106.95,8.06666667 106.95,8.6 L106.95,27.4 Z" id="Path" fill="url(#linearGradient-1)"></path>
                <path d="M132.9,0.5 L135.1,35.5 L126.1,35.5 L126.1,28.3 L125.5,28.3 L125.5,35.5 L116.5,35.5 L118.9,0.5 L132.9,0.5 Z M126.1,20.5 L126.1,16.2 L125.5,16.2 L125.5,20.5 L126.1,20.5 Z" id="Shape" fill="url(#linearGradient-3)"></path>
                <polygon id="Path" fill="url(#linearGradient-2)" points="144.55 0.5 144.55 27.7 148.55 27.7 148.55 35.5 135.55 35.5 135.55 0.5"></polygon>
                <polygon id="Path" fill="url(#linearGradient-2)" points="158 8.3 158 13.15 162 13.15 162 20.95 158 20.95 158 27.7 162 27.7 162 35.5 149 35.5 149 0.5 162 0.5 162 8.3"></polygon>
                <polygon id="Path" fill="url(#linearGradient-5)" points="182 0.5 182 35.5 172.35 35.5 170.05 16.5 169.55 16.5 171.6 35.5 162.6 35.5 162.6 0.5 172.25 0.5 174.75 19.7 175.25 19.7 173 0.5"></polygon>
                <path d="M191.8,0.5 C194.8,0.5 197.116667,1.225 198.75,2.675 C200.383333,4.125 201.2,6.31666667 201.2,9.25 L201.2,26.75 C201.2,29.7166667 200.383333,31.9166667 198.75,33.35 C197.116667,34.7833333 194.8,35.5 191.8,35.5 L182.6,35.5 L182.6,0.5 L191.8,0.5 Z M191.65,27.7 L191.75,27.7 C191.983333,27.7 192.116667,27.6583333 192.15,27.575 C192.183333,27.4916667 192.2,27.2666667 192.2,26.9 L192.2,9.1 C192.2,8.73333333 192.183333,8.50833333 192.15,8.425 C192.116667,8.34166667 191.983333,8.3 191.75,8.3 L191.65,8.3 L191.65,27.7 Z" id="Shape" fill="url(#linearGradient-3)"></path>
                <path d="M217.55,0.5 L219.75,35.5 L210.75,35.5 L210.75,28.3 L210.15,28.3 L210.15,35.5 L201.15,35.5 L203.55,0.5 L217.55,0.5 Z M210.75,20.5 L210.75,16.2 L210.15,16.2 L210.15,20.5 L210.75,20.5 Z" id="Shape" fill="url(#linearGradient-3)"></path>
                <path d="M229.4,0.5 C232.4,0.5 234.716667,1.25833333 236.35,2.775 C237.983333,4.29166667 238.8,6.65 238.8,9.85 L238.8,10.1 C238.8,11.5666667 238.633333,12.8416667 238.3,13.925 C237.966667,15.0083333 237.55,15.9166667 237.05,16.65 C236.55,17.3833333 236,17.925 235.4,18.275 C234.8,18.625 234.233333,18.8 233.7,18.8 L233.7,19.4 C234.233333,19.4 234.8,19.6 235.4,20 C236,20.4 236.55,20.9666667 237.05,21.7 C237.55,22.4333333 237.966667,23.3333333 238.3,24.4 C238.633333,25.4666667 238.8,26.6666667 238.8,28 L238.8,28.4 C238.8,29.7333333 238.825,30.9833333 238.875,32.15 C238.925,33.3166667 239.066667,34.4333333 239.3,35.5 L230.3,35.5 C230.066667,34.4 229.925,33.2666667 229.875,32.1 C229.825,30.9333333 229.8,29.6666667 229.8,28.3 L229.8,23.8 C229.8,23.4333333 229.783333,23.2083333 229.75,23.125 C229.716667,23.0416667 229.566667,23 229.3,23 L229.2,23 L229.2,35.5 L220.2,35.5 L220.2,0.5 L229.4,0.5 Z M229.2,15.2 L229.3,15.2 C229.566667,15.2 229.716667,15.1583333 229.75,15.075 C229.783333,14.9916667 229.8,14.7666667 229.8,14.4 L229.8,9.05 C229.8,8.71666667 229.783333,8.50833333 229.75,8.425 C229.716667,8.34166667 229.566667,8.3 229.3,8.3 L229.2,8.3 L229.2,15.2 Z" id="Shape" fill="url(#linearGradient-4)"></path>
            </g>
        </g>
    </g>
</svg>